<?xml version="1.0" encoding="UTF-8"?>
<mxfile host="app.diagrams.net" agent="Mozilla/5.0 (Windows NT 10.0; Win64; x64) AppleWebKit/537.36 (KHTML, like Gecko) Chrome/131.0.0.0 Safari/537.36" version="25.0.1">
  <diagram id="C5RBs43oDa-KdzZeNtuy" name="Page-1">
    <mxGraphModel dx="2901" dy="2221" grid="1" gridSize="10" guides="1" tooltips="1" connect="1" arrows="1" fold="1" page="1" pageScale="1" pageWidth="827" pageHeight="1169" math="0" shadow="0">
      <root>
        <mxCell id="WIyWlLk6GJQsqaUBKTNV-0" />
        <mxCell id="WIyWlLk6GJQsqaUBKTNV-1" parent="WIyWlLk6GJQsqaUBKTNV-0" />
        <mxCell id="RK4T76Md9DpvqgegxEv0-0" value="" style="rounded=0;whiteSpace=wrap;html=1;" parent="WIyWlLk6GJQsqaUBKTNV-1" vertex="1">
          <mxGeometry x="-560" y="-534" width="240" height="230" as="geometry" />
        </mxCell>
        <mxCell id="RK4T76Md9DpvqgegxEv0-12" value="&lt;h1 style=&quot;color: rgb(44, 45, 46); font-weight: 400; margin: 8px 0px 0.67em; font-size: 24px; line-height: 32px; font-family: Helvetica, Arial, sans-serif; text-align: start; background-color: rgb(255, 255, 255);&quot; class=&quot;z7Rgh&quot;&gt;≡&lt;/h1&gt;" style="text;html=1;align=center;verticalAlign=middle;whiteSpace=wrap;rounded=0;" parent="WIyWlLk6GJQsqaUBKTNV-1" vertex="1">
          <mxGeometry x="-550" y="-519" width="20" height="20" as="geometry" />
        </mxCell>
        <mxCell id="RK4T76Md9DpvqgegxEv0-1" value="&lt;font style=&quot;font-size: 10px;&quot;&gt;Фото&lt;/font&gt;" style="ellipse;whiteSpace=wrap;html=1;aspect=fixed;" parent="WIyWlLk6GJQsqaUBKTNV-1" vertex="1">
          <mxGeometry x="-530" y="-499" width="50" height="50" as="geometry" />
        </mxCell>
        <mxCell id="RK4T76Md9DpvqgegxEv0-2" value="&lt;font style=&quot;font-size: 10px;&quot;&gt;Имя пользователя&lt;/font&gt;" style="rounded=0;whiteSpace=wrap;html=1;" parent="WIyWlLk6GJQsqaUBKTNV-1" vertex="1">
          <mxGeometry x="-450" y="-484" width="110" height="20" as="geometry" />
        </mxCell>
        <mxCell id="RK4T76Md9DpvqgegxEv0-3" value="&lt;font style=&quot;font-size: 9px;&quot;&gt;✎&lt;/font&gt;" style="ellipse;whiteSpace=wrap;html=1;aspect=fixed;align=center;" parent="WIyWlLk6GJQsqaUBKTNV-1" vertex="1">
          <mxGeometry x="-495" y="-464" width="20" height="20" as="geometry" />
        </mxCell>
        <mxCell id="RK4T76Md9DpvqgegxEv0-5" value="&lt;span style=&quot;font-size: 10px;&quot;&gt;Номер телефона&lt;/span&gt;" style="rounded=0;whiteSpace=wrap;html=1;" parent="WIyWlLk6GJQsqaUBKTNV-1" vertex="1">
          <mxGeometry x="-530" y="-434" width="110" height="20" as="geometry" />
        </mxCell>
        <mxCell id="RK4T76Md9DpvqgegxEv0-6" value="&lt;span style=&quot;font-size: 10px;&quot;&gt;Email&lt;/span&gt;" style="rounded=0;whiteSpace=wrap;html=1;" parent="WIyWlLk6GJQsqaUBKTNV-1" vertex="1">
          <mxGeometry x="-530" y="-404" width="110" height="20" as="geometry" />
        </mxCell>
        <mxCell id="RK4T76Md9DpvqgegxEv0-7" value="&lt;span style=&quot;font-size: 10px;&quot;&gt;Город&lt;/span&gt;" style="rounded=0;whiteSpace=wrap;html=1;" parent="WIyWlLk6GJQsqaUBKTNV-1" vertex="1">
          <mxGeometry x="-530" y="-374" width="110" height="20" as="geometry" />
        </mxCell>
        <mxCell id="RK4T76Md9DpvqgegxEv0-8" value="&lt;div style=&quot;line-height: 0%;&quot;&gt;&lt;br&gt;&lt;/div&gt;" style="whiteSpace=wrap;html=1;aspect=fixed;fillColor=none;" parent="WIyWlLk6GJQsqaUBKTNV-1" vertex="1">
          <mxGeometry x="-550" y="-524" width="20" height="20" as="geometry" />
        </mxCell>
        <mxCell id="RK4T76Md9DpvqgegxEv0-13" value="Экран ЛК" style="text;html=1;align=center;verticalAlign=middle;whiteSpace=wrap;rounded=0;" parent="WIyWlLk6GJQsqaUBKTNV-1" vertex="1">
          <mxGeometry x="-560" y="-584" width="60" height="30" as="geometry" />
        </mxCell>
        <mxCell id="RK4T76Md9DpvqgegxEv0-15" value="/profile/{userid}/" style="text;html=1;align=center;verticalAlign=middle;resizable=0;points=[];autosize=1;strokeColor=none;fillColor=none;" parent="WIyWlLk6GJQsqaUBKTNV-1" vertex="1">
          <mxGeometry x="-570" y="-564" width="110" height="30" as="geometry" />
        </mxCell>
        <mxCell id="RK4T76Md9DpvqgegxEv0-26" value="" style="rounded=0;whiteSpace=wrap;html=1;" parent="WIyWlLk6GJQsqaUBKTNV-1" vertex="1">
          <mxGeometry x="-670" y="-534" width="110" height="230" as="geometry" />
        </mxCell>
        <mxCell id="RK4T76Md9DpvqgegxEv0-28" value="Меню" style="text;html=1;align=center;verticalAlign=middle;whiteSpace=wrap;rounded=0;" parent="WIyWlLk6GJQsqaUBKTNV-1" vertex="1">
          <mxGeometry x="-645" y="-529" width="60" height="30" as="geometry" />
        </mxCell>
        <mxCell id="RK4T76Md9DpvqgegxEv0-32" value="&lt;font style=&quot;font-size: 9px;&quot;&gt;Служба поддержки&lt;/font&gt;" style="rounded=0;whiteSpace=wrap;html=1;" parent="WIyWlLk6GJQsqaUBKTNV-1" vertex="1">
          <mxGeometry x="-657.5" y="-394" width="85" height="20" as="geometry" />
        </mxCell>
        <mxCell id="RK4T76Md9DpvqgegxEv0-33" value="&lt;span style=&quot;font-size: 9px;&quot;&gt;История заказов&lt;/span&gt;" style="rounded=0;whiteSpace=wrap;html=1;" parent="WIyWlLk6GJQsqaUBKTNV-1" vertex="1">
          <mxGeometry x="-657.5" y="-424" width="85" height="20" as="geometry" />
        </mxCell>
        <mxCell id="RK4T76Md9DpvqgegxEv0-34" value="&lt;span style=&quot;font-size: 9px;&quot;&gt;Мои растения&lt;/span&gt;" style="rounded=0;whiteSpace=wrap;html=1;" parent="WIyWlLk6GJQsqaUBKTNV-1" vertex="1">
          <mxGeometry x="-657.5" y="-454" width="85" height="20" as="geometry" />
        </mxCell>
        <mxCell id="RK4T76Md9DpvqgegxEv0-35" value="&lt;span style=&quot;color: rgb(51, 51, 51); font-size: 9px;&quot;&gt;Личный кабинет&lt;/span&gt;" style="rounded=0;whiteSpace=wrap;html=1;fillColor=#d0cee2;strokeColor=#56517e;" parent="WIyWlLk6GJQsqaUBKTNV-1" vertex="1">
          <mxGeometry x="-657.5" y="-484" width="85" height="20" as="geometry" />
        </mxCell>
        <mxCell id="RK4T76Md9DpvqgegxEv0-37" value="Контент" style="rounded=0;whiteSpace=wrap;html=1;" parent="WIyWlLk6GJQsqaUBKTNV-1" vertex="1">
          <mxGeometry x="135" y="-300" width="240" height="230" as="geometry" />
        </mxCell>
        <mxCell id="RK4T76Md9DpvqgegxEv0-38" value="&lt;h1 style=&quot;color: rgb(44, 45, 46); font-weight: 400; margin: 8px 0px 0.67em; font-size: 24px; line-height: 32px; font-family: Helvetica, Arial, sans-serif; text-align: start; background-color: rgb(255, 255, 255);&quot; class=&quot;z7Rgh&quot;&gt;≡&lt;/h1&gt;" style="text;html=1;align=center;verticalAlign=middle;whiteSpace=wrap;rounded=0;" parent="WIyWlLk6GJQsqaUBKTNV-1" vertex="1">
          <mxGeometry x="145" y="-285" width="20" height="20" as="geometry" />
        </mxCell>
        <mxCell id="RK4T76Md9DpvqgegxEv0-45" value="&lt;div style=&quot;line-height: 0%;&quot;&gt;&lt;br&gt;&lt;/div&gt;" style="whiteSpace=wrap;html=1;aspect=fixed;fillColor=none;" parent="WIyWlLk6GJQsqaUBKTNV-1" vertex="1">
          <mxGeometry x="145" y="-290" width="20" height="20" as="geometry" />
        </mxCell>
        <mxCell id="RK4T76Md9DpvqgegxEv0-46" value="Меню" style="text;html=1;align=center;verticalAlign=middle;whiteSpace=wrap;rounded=0;" parent="WIyWlLk6GJQsqaUBKTNV-1" vertex="1">
          <mxGeometry x="180" y="-350" width="60" height="30" as="geometry" />
        </mxCell>
        <mxCell id="RK4T76Md9DpvqgegxEv0-47" value="/dashboard" style="text;html=1;align=center;verticalAlign=middle;resizable=0;points=[];autosize=1;strokeColor=none;fillColor=none;" parent="WIyWlLk6GJQsqaUBKTNV-1" vertex="1">
          <mxGeometry x="185" y="-330" width="80" height="30" as="geometry" />
        </mxCell>
        <mxCell id="RK4T76Md9DpvqgegxEv0-48" value="" style="edgeStyle=elbowEdgeStyle;endArrow=classic;html=1;rounded=0;endSize=8;startSize=8;exitX=0.5;exitY=0;exitDx=0;exitDy=0;" parent="WIyWlLk6GJQsqaUBKTNV-1" source="RK4T76Md9DpvqgegxEv0-45" target="RK4T76Md9DpvqgegxEv0-50" edge="1">
          <mxGeometry width="50" height="50" relative="1" as="geometry">
            <mxPoint x="95" y="-130" as="sourcePoint" />
            <mxPoint x="95" y="-300" as="targetPoint" />
            <Array as="points">
              <mxPoint x="145" y="-330" />
            </Array>
          </mxGeometry>
        </mxCell>
        <mxCell id="RK4T76Md9DpvqgegxEv0-49" value="при нажатии" style="edgeLabel;html=1;align=center;verticalAlign=middle;resizable=0;points=[];" parent="RK4T76Md9DpvqgegxEv0-48" vertex="1" connectable="0">
          <mxGeometry x="0.4715" relative="1" as="geometry">
            <mxPoint x="26" as="offset" />
          </mxGeometry>
        </mxCell>
        <mxCell id="RK4T76Md9DpvqgegxEv0-50" value="" style="rounded=0;whiteSpace=wrap;html=1;" parent="WIyWlLk6GJQsqaUBKTNV-1" vertex="1">
          <mxGeometry x="25" y="-300" width="110" height="230" as="geometry" />
        </mxCell>
        <mxCell id="RK4T76Md9DpvqgegxEv0-51" value="Меню" style="text;html=1;align=center;verticalAlign=middle;whiteSpace=wrap;rounded=0;" parent="WIyWlLk6GJQsqaUBKTNV-1" vertex="1">
          <mxGeometry x="50" y="-295" width="60" height="30" as="geometry" />
        </mxCell>
        <mxCell id="RK4T76Md9DpvqgegxEv0-52" value="&lt;font style=&quot;font-size: 9px;&quot;&gt;Служба поддержки&lt;/font&gt;" style="rounded=0;whiteSpace=wrap;html=1;" parent="WIyWlLk6GJQsqaUBKTNV-1" vertex="1">
          <mxGeometry x="37.5" y="-160" width="85" height="20" as="geometry" />
        </mxCell>
        <mxCell id="RK4T76Md9DpvqgegxEv0-53" value="&lt;span style=&quot;font-size: 9px;&quot;&gt;История заказов&lt;/span&gt;" style="rounded=0;whiteSpace=wrap;html=1;" parent="WIyWlLk6GJQsqaUBKTNV-1" vertex="1">
          <mxGeometry x="37.5" y="-190" width="85" height="20" as="geometry" />
        </mxCell>
        <mxCell id="RK4T76Md9DpvqgegxEv0-54" value="&lt;span style=&quot;font-size: 9px;&quot;&gt;Мои растения&lt;/span&gt;" style="rounded=0;whiteSpace=wrap;html=1;" parent="WIyWlLk6GJQsqaUBKTNV-1" vertex="1">
          <mxGeometry x="37.5" y="-220" width="85" height="20" as="geometry" />
        </mxCell>
        <mxCell id="RK4T76Md9DpvqgegxEv0-55" value="&lt;span style=&quot;color: rgb(51, 51, 51); font-size: 9px;&quot;&gt;Личный кабинет&lt;/span&gt;" style="rounded=0;whiteSpace=wrap;html=1;" parent="WIyWlLk6GJQsqaUBKTNV-1" vertex="1">
          <mxGeometry x="37.5" y="-250" width="85" height="20" as="geometry" />
        </mxCell>
        <mxCell id="RK4T76Md9DpvqgegxEv0-57" value="" style="edgeStyle=elbowEdgeStyle;elbow=horizontal;endArrow=classic;html=1;curved=0;rounded=0;endSize=8;startSize=8;exitX=0;exitY=0.5;exitDx=0;exitDy=0;" parent="WIyWlLk6GJQsqaUBKTNV-1" source="RK4T76Md9DpvqgegxEv0-55" target="RK4T76Md9DpvqgegxEv0-0" edge="1">
          <mxGeometry width="50" height="50" relative="1" as="geometry">
            <mxPoint x="39.68" y="-245" as="sourcePoint" />
            <mxPoint x="130" y="-20" as="targetPoint" />
            <Array as="points">
              <mxPoint x="-40" y="-420" />
            </Array>
          </mxGeometry>
        </mxCell>
        <mxCell id="RK4T76Md9DpvqgegxEv0-104" value="Экран &quot;Мои растения&quot;" style="text;html=1;align=center;verticalAlign=middle;whiteSpace=wrap;rounded=0;" parent="WIyWlLk6GJQsqaUBKTNV-1" vertex="1">
          <mxGeometry x="-560" y="-300" width="140" height="30" as="geometry" />
        </mxCell>
        <mxCell id="RK4T76Md9DpvqgegxEv0-105" value="/plants" style="text;html=1;align=center;verticalAlign=middle;resizable=0;points=[];autosize=1;strokeColor=none;fillColor=none;" parent="WIyWlLk6GJQsqaUBKTNV-1" vertex="1">
          <mxGeometry x="-560" y="-280" width="60" height="30" as="geometry" />
        </mxCell>
        <mxCell id="RK4T76Md9DpvqgegxEv0-112" value="&lt;span style=&quot;font-size: 9px;&quot;&gt;✎&amp;nbsp;&lt;/span&gt;&lt;span style=&quot;font-size: 10px;&quot;&gt;Редактировать профиль&lt;/span&gt;" style="rounded=0;whiteSpace=wrap;html=1;" parent="WIyWlLk6GJQsqaUBKTNV-1" vertex="1">
          <mxGeometry x="-460" y="-325" width="140" height="20" as="geometry" />
        </mxCell>
        <mxCell id="RK4T76Md9DpvqgegxEv0-113" value="&lt;font style=&quot;font-size: 10px;&quot;&gt;Профиль&lt;/font&gt;" style="rounded=0;whiteSpace=wrap;html=1;" parent="WIyWlLk6GJQsqaUBKTNV-1" vertex="1">
          <mxGeometry x="-495" y="-529" width="110" height="20" as="geometry" />
        </mxCell>
        <mxCell id="RK4T76Md9DpvqgegxEv0-125" value="" style="rounded=0;whiteSpace=wrap;html=1;" parent="WIyWlLk6GJQsqaUBKTNV-1" vertex="1">
          <mxGeometry x="-560" y="-250" width="240" height="230" as="geometry" />
        </mxCell>
        <mxCell id="RK4T76Md9DpvqgegxEv0-126" value="&lt;h1 style=&quot;color: rgb(44, 45, 46); font-weight: 400; margin: 8px 0px 0.67em; font-size: 24px; line-height: 32px; font-family: Helvetica, Arial, sans-serif; text-align: start; background-color: rgb(255, 255, 255);&quot; class=&quot;z7Rgh&quot;&gt;≡&lt;/h1&gt;" style="text;html=1;align=center;verticalAlign=middle;whiteSpace=wrap;rounded=0;" parent="WIyWlLk6GJQsqaUBKTNV-1" vertex="1">
          <mxGeometry x="-550" y="-235" width="20" height="20" as="geometry" />
        </mxCell>
        <mxCell id="RK4T76Md9DpvqgegxEv0-133" value="&lt;div style=&quot;line-height: 0%;&quot;&gt;&lt;br&gt;&lt;/div&gt;" style="whiteSpace=wrap;html=1;aspect=fixed;fillColor=none;" parent="WIyWlLk6GJQsqaUBKTNV-1" vertex="1">
          <mxGeometry x="-550" y="-240" width="20" height="20" as="geometry" />
        </mxCell>
        <mxCell id="RK4T76Md9DpvqgegxEv0-134" value="" style="rounded=0;whiteSpace=wrap;html=1;" parent="WIyWlLk6GJQsqaUBKTNV-1" vertex="1">
          <mxGeometry x="-670" y="-250" width="110" height="230" as="geometry" />
        </mxCell>
        <mxCell id="RK4T76Md9DpvqgegxEv0-135" value="Меню" style="text;html=1;align=center;verticalAlign=middle;whiteSpace=wrap;rounded=0;" parent="WIyWlLk6GJQsqaUBKTNV-1" vertex="1">
          <mxGeometry x="-645" y="-245" width="60" height="30" as="geometry" />
        </mxCell>
        <mxCell id="RK4T76Md9DpvqgegxEv0-136" value="&lt;font style=&quot;font-size: 9px;&quot;&gt;Служба поддержки&lt;/font&gt;" style="rounded=0;whiteSpace=wrap;html=1;" parent="WIyWlLk6GJQsqaUBKTNV-1" vertex="1">
          <mxGeometry x="-657.5" y="-110" width="85" height="20" as="geometry" />
        </mxCell>
        <mxCell id="RK4T76Md9DpvqgegxEv0-137" value="&lt;span style=&quot;font-size: 9px;&quot;&gt;История заказов&lt;/span&gt;" style="rounded=0;whiteSpace=wrap;html=1;" parent="WIyWlLk6GJQsqaUBKTNV-1" vertex="1">
          <mxGeometry x="-657.5" y="-140" width="85" height="20" as="geometry" />
        </mxCell>
        <mxCell id="RK4T76Md9DpvqgegxEv0-138" value="&lt;span style=&quot;font-size: 9px;&quot;&gt;Мои растения&lt;/span&gt;" style="rounded=0;whiteSpace=wrap;html=1;fillColor=#d0cee2;strokeColor=#56517e;" parent="WIyWlLk6GJQsqaUBKTNV-1" vertex="1">
          <mxGeometry x="-657.5" y="-170" width="85" height="20" as="geometry" />
        </mxCell>
        <mxCell id="RK4T76Md9DpvqgegxEv0-139" value="&lt;span style=&quot;color: rgb(51, 51, 51); font-size: 9px;&quot;&gt;Личный кабинет&lt;/span&gt;" style="rounded=0;whiteSpace=wrap;html=1;" parent="WIyWlLk6GJQsqaUBKTNV-1" vertex="1">
          <mxGeometry x="-657.5" y="-200" width="85" height="20" as="geometry" />
        </mxCell>
        <mxCell id="RK4T76Md9DpvqgegxEv0-141" value="&lt;font style=&quot;font-size: 10px;&quot;&gt;Мои растения&lt;/font&gt;" style="rounded=0;whiteSpace=wrap;html=1;" parent="WIyWlLk6GJQsqaUBKTNV-1" vertex="1">
          <mxGeometry x="-495" y="-245" width="110" height="20" as="geometry" />
        </mxCell>
        <mxCell id="RK4T76Md9DpvqgegxEv0-142" value="&lt;span style=&quot;font-size: 10px;&quot;&gt;Растение 1&lt;/span&gt;" style="rounded=0;whiteSpace=wrap;html=1;" parent="WIyWlLk6GJQsqaUBKTNV-1" vertex="1">
          <mxGeometry x="-530" y="-190" width="110" height="20" as="geometry" />
        </mxCell>
        <mxCell id="RK4T76Md9DpvqgegxEv0-143" value="&lt;span style=&quot;font-size: 10px;&quot;&gt;+ Добавить растение&lt;/span&gt;" style="rounded=0;whiteSpace=wrap;html=1;" parent="WIyWlLk6GJQsqaUBKTNV-1" vertex="1">
          <mxGeometry x="-530" y="-130" width="110" height="20" as="geometry" />
        </mxCell>
        <mxCell id="RK4T76Md9DpvqgegxEv0-144" value="&lt;span style=&quot;font-size: 10px;&quot;&gt;Растение 2&lt;/span&gt;" style="rounded=0;whiteSpace=wrap;html=1;" parent="WIyWlLk6GJQsqaUBKTNV-1" vertex="1">
          <mxGeometry x="-530" y="-160" width="110" height="20" as="geometry" />
        </mxCell>
        <mxCell id="RK4T76Md9DpvqgegxEv0-146" value="&lt;span style=&quot;font-size: 10px;&quot;&gt;Х&lt;/span&gt;" style="rounded=0;whiteSpace=wrap;html=1;" parent="WIyWlLk6GJQsqaUBKTNV-1" vertex="1">
          <mxGeometry x="-420" y="-160" width="20" height="20" as="geometry" />
        </mxCell>
        <mxCell id="RK4T76Md9DpvqgegxEv0-147" value="&lt;span style=&quot;font-size: 10px;&quot;&gt;Х&lt;/span&gt;" style="rounded=0;whiteSpace=wrap;html=1;" parent="WIyWlLk6GJQsqaUBKTNV-1" vertex="1">
          <mxGeometry x="-420" y="-190" width="20" height="20" as="geometry" />
        </mxCell>
        <mxCell id="RK4T76Md9DpvqgegxEv0-148" value="" style="edgeStyle=elbowEdgeStyle;elbow=horizontal;endArrow=classic;html=1;curved=0;rounded=0;endSize=8;startSize=8;exitX=0;exitY=0.5;exitDx=0;exitDy=0;entryX=1;entryY=0.174;entryDx=0;entryDy=0;entryPerimeter=0;" parent="WIyWlLk6GJQsqaUBKTNV-1" source="RK4T76Md9DpvqgegxEv0-54" target="RK4T76Md9DpvqgegxEv0-125" edge="1">
          <mxGeometry width="50" height="50" relative="1" as="geometry">
            <mxPoint x="36.3" y="-200" as="sourcePoint" />
            <mxPoint x="-320.00000000000006" y="-200.67000000000007" as="targetPoint" />
            <Array as="points">
              <mxPoint x="-161" y="-210" />
            </Array>
          </mxGeometry>
        </mxCell>
        <mxCell id="RK4T76Md9DpvqgegxEv0-149" value="ENDPOINT:&lt;br&gt;GET /api/v1/users/profile/{userid}" style="text;html=1;align=center;verticalAlign=middle;whiteSpace=wrap;rounded=0;" parent="WIyWlLk6GJQsqaUBKTNV-1" vertex="1">
          <mxGeometry x="-280" y="-564" width="200" height="90" as="geometry" />
        </mxCell>
        <mxCell id="RK4T76Md9DpvqgegxEv0-152" value="" style="edgeStyle=elbowEdgeStyle;elbow=horizontal;endArrow=classic;html=1;curved=0;rounded=0;endSize=8;startSize=8;" parent="WIyWlLk6GJQsqaUBKTNV-1" target="RK4T76Md9DpvqgegxEv0-149" edge="1">
          <mxGeometry width="50" height="50" relative="1" as="geometry">
            <mxPoint x="-320" y="-484" as="sourcePoint" />
            <mxPoint x="-270" y="-534" as="targetPoint" />
          </mxGeometry>
        </mxCell>
        <mxCell id="RK4T76Md9DpvqgegxEv0-153" value="" style="edgeStyle=elbowEdgeStyle;elbow=horizontal;endArrow=classic;html=1;curved=0;rounded=0;endSize=8;startSize=8;" parent="WIyWlLk6GJQsqaUBKTNV-1" edge="1">
          <mxGeometry width="50" height="50" relative="1" as="geometry">
            <mxPoint x="-320" y="-315" as="sourcePoint" />
            <mxPoint x="-280" y="-350" as="targetPoint" />
          </mxGeometry>
        </mxCell>
        <mxCell id="RK4T76Md9DpvqgegxEv0-154" value="ENDPOINT:&lt;br&gt;PATCH/api/v1/users/profile/{userid}/&amp;lt;Атрибут для изменения&amp;gt;" style="text;html=1;align=center;verticalAlign=middle;whiteSpace=wrap;rounded=0;" parent="WIyWlLk6GJQsqaUBKTNV-1" vertex="1">
          <mxGeometry x="-270" y="-395" width="230" height="90" as="geometry" />
        </mxCell>
        <mxCell id="l8SobAz54TLkcfAKa1hX-0" value="ENDPOINT:&lt;br&gt;GET /api/v1/plants - получение списка растений&lt;div&gt;POST /api/v1/plants - добавление растения&lt;/div&gt;&lt;div&gt;DELETE /api/v1/plants/{plantId}/ - удаление растения&lt;br&gt;&lt;br&gt;&lt;/div&gt;" style="text;html=1;align=center;verticalAlign=middle;whiteSpace=wrap;rounded=0;" parent="WIyWlLk6GJQsqaUBKTNV-1" vertex="1">
          <mxGeometry x="-285" y="-60" width="310" height="120" as="geometry" />
        </mxCell>
        <mxCell id="l8SobAz54TLkcfAKa1hX-2" value="" style="edgeStyle=elbowEdgeStyle;elbow=horizontal;endArrow=classic;html=1;curved=0;rounded=0;endSize=8;startSize=8;" parent="WIyWlLk6GJQsqaUBKTNV-1" target="l8SobAz54TLkcfAKa1hX-0" edge="1">
          <mxGeometry width="50" height="50" relative="1" as="geometry">
            <mxPoint x="-320" y="-70" as="sourcePoint" />
            <mxPoint x="-280" y="-105" as="targetPoint" />
          </mxGeometry>
        </mxCell>
        <mxCell id="l8SobAz54TLkcfAKa1hX-3" value="Экран &quot;История заказов&quot;" style="text;html=1;align=center;verticalAlign=middle;whiteSpace=wrap;rounded=0;" parent="WIyWlLk6GJQsqaUBKTNV-1" vertex="1">
          <mxGeometry x="-560" y="40" width="150" height="30" as="geometry" />
        </mxCell>
        <mxCell id="l8SobAz54TLkcfAKa1hX-4" value="/orders" style="text;html=1;align=center;verticalAlign=middle;resizable=0;points=[];autosize=1;strokeColor=none;fillColor=none;" parent="WIyWlLk6GJQsqaUBKTNV-1" vertex="1">
          <mxGeometry x="-560" y="60" width="60" height="30" as="geometry" />
        </mxCell>
        <mxCell id="l8SobAz54TLkcfAKa1hX-5" value="" style="rounded=0;whiteSpace=wrap;html=1;" parent="WIyWlLk6GJQsqaUBKTNV-1" vertex="1">
          <mxGeometry x="-560" y="90" width="240" height="230" as="geometry" />
        </mxCell>
        <mxCell id="l8SobAz54TLkcfAKa1hX-6" value="&lt;h1 style=&quot;color: rgb(44, 45, 46); font-weight: 400; margin: 8px 0px 0.67em; font-size: 24px; line-height: 32px; font-family: Helvetica, Arial, sans-serif; text-align: start; background-color: rgb(255, 255, 255);&quot; class=&quot;z7Rgh&quot;&gt;≡&lt;/h1&gt;" style="text;html=1;align=center;verticalAlign=middle;whiteSpace=wrap;rounded=0;" parent="WIyWlLk6GJQsqaUBKTNV-1" vertex="1">
          <mxGeometry x="-550" y="105" width="20" height="20" as="geometry" />
        </mxCell>
        <mxCell id="l8SobAz54TLkcfAKa1hX-7" value="&lt;div style=&quot;line-height: 0%;&quot;&gt;&lt;br&gt;&lt;/div&gt;" style="whiteSpace=wrap;html=1;aspect=fixed;fillColor=none;" parent="WIyWlLk6GJQsqaUBKTNV-1" vertex="1">
          <mxGeometry x="-550" y="100" width="20" height="20" as="geometry" />
        </mxCell>
        <mxCell id="l8SobAz54TLkcfAKa1hX-8" value="" style="rounded=0;whiteSpace=wrap;html=1;" parent="WIyWlLk6GJQsqaUBKTNV-1" vertex="1">
          <mxGeometry x="-670" y="90" width="110" height="230" as="geometry" />
        </mxCell>
        <mxCell id="l8SobAz54TLkcfAKa1hX-9" value="Меню" style="text;html=1;align=center;verticalAlign=middle;whiteSpace=wrap;rounded=0;" parent="WIyWlLk6GJQsqaUBKTNV-1" vertex="1">
          <mxGeometry x="-645" y="95" width="60" height="30" as="geometry" />
        </mxCell>
        <mxCell id="l8SobAz54TLkcfAKa1hX-10" value="&lt;font style=&quot;font-size: 9px;&quot;&gt;Служба поддержки&lt;/font&gt;" style="rounded=0;whiteSpace=wrap;html=1;" parent="WIyWlLk6GJQsqaUBKTNV-1" vertex="1">
          <mxGeometry x="-657.5" y="230" width="85" height="20" as="geometry" />
        </mxCell>
        <mxCell id="l8SobAz54TLkcfAKa1hX-11" value="&lt;span style=&quot;font-size: 9px;&quot;&gt;История заказов&lt;/span&gt;" style="rounded=0;whiteSpace=wrap;html=1;fillColor=#d0cee2;strokeColor=#56517e;" parent="WIyWlLk6GJQsqaUBKTNV-1" vertex="1">
          <mxGeometry x="-657.5" y="200" width="85" height="20" as="geometry" />
        </mxCell>
        <mxCell id="l8SobAz54TLkcfAKa1hX-12" value="&lt;span style=&quot;font-size: 9px;&quot;&gt;Мои растения&lt;/span&gt;" style="rounded=0;whiteSpace=wrap;html=1;" parent="WIyWlLk6GJQsqaUBKTNV-1" vertex="1">
          <mxGeometry x="-657.5" y="170" width="85" height="20" as="geometry" />
        </mxCell>
        <mxCell id="l8SobAz54TLkcfAKa1hX-13" value="&lt;span style=&quot;color: rgb(51, 51, 51); font-size: 9px;&quot;&gt;Личный кабинет&lt;/span&gt;" style="rounded=0;whiteSpace=wrap;html=1;" parent="WIyWlLk6GJQsqaUBKTNV-1" vertex="1">
          <mxGeometry x="-657.5" y="140" width="85" height="20" as="geometry" />
        </mxCell>
        <mxCell id="l8SobAz54TLkcfAKa1hX-14" value="&lt;font style=&quot;font-size: 10px;&quot;&gt;История заказов&lt;/font&gt;" style="rounded=0;whiteSpace=wrap;html=1;" parent="WIyWlLk6GJQsqaUBKTNV-1" vertex="1">
          <mxGeometry x="-495" y="95" width="110" height="20" as="geometry" />
        </mxCell>
        <mxCell id="l8SobAz54TLkcfAKa1hX-17" value="&lt;span style=&quot;font-size: 10px;&quot;&gt;Список заказов:&lt;/span&gt;&lt;div&gt;&lt;span style=&quot;font-size: 10px;&quot;&gt;1. Дата заказа&lt;/span&gt;&lt;/div&gt;&lt;div&gt;&lt;span style=&quot;font-size: 10px;&quot;&gt;2. Растение&lt;/span&gt;&lt;/div&gt;&lt;div&gt;&lt;span style=&quot;font-size: 10px;&quot;&gt;3. Стоимость&lt;/span&gt;&lt;/div&gt;" style="rounded=0;whiteSpace=wrap;html=1;" parent="WIyWlLk6GJQsqaUBKTNV-1" vertex="1">
          <mxGeometry x="-530" y="150" width="180" height="100" as="geometry" />
        </mxCell>
        <mxCell id="l8SobAz54TLkcfAKa1hX-20" value="" style="edgeStyle=elbowEdgeStyle;elbow=horizontal;endArrow=classic;html=1;curved=0;rounded=0;endSize=8;startSize=8;entryX=-0.008;entryY=0.109;entryDx=0;entryDy=0;entryPerimeter=0;" parent="WIyWlLk6GJQsqaUBKTNV-1" target="l8SobAz54TLkcfAKa1hX-28" edge="1">
          <mxGeometry width="50" height="50" relative="1" as="geometry">
            <mxPoint x="-320" y="200" as="sourcePoint" />
            <mxPoint x="-125.32999999999993" y="200.18999999999983" as="targetPoint" />
          </mxGeometry>
        </mxCell>
        <mxCell id="l8SobAz54TLkcfAKa1hX-21" value="" style="edgeStyle=elbowEdgeStyle;elbow=horizontal;endArrow=classic;html=1;curved=0;rounded=0;endSize=8;startSize=8;exitX=0;exitY=0.5;exitDx=0;exitDy=0;entryX=1.004;entryY=0.081;entryDx=0;entryDy=0;entryPerimeter=0;" parent="WIyWlLk6GJQsqaUBKTNV-1" source="RK4T76Md9DpvqgegxEv0-53" target="l8SobAz54TLkcfAKa1hX-5" edge="1">
          <mxGeometry width="50" height="50" relative="1" as="geometry">
            <mxPoint x="37.5" y="-180" as="sourcePoint" />
            <mxPoint x="-320.5" y="-180" as="targetPoint" />
            <Array as="points">
              <mxPoint y="-30" />
            </Array>
          </mxGeometry>
        </mxCell>
        <mxCell id="l8SobAz54TLkcfAKa1hX-22" value="&lt;font style=&quot;font-size: 8px;&quot;&gt;Сортировка по дате заказа&lt;/font&gt;" style="text;html=1;align=center;verticalAlign=middle;resizable=0;points=[];autosize=1;strokeColor=none;fillColor=none;" parent="WIyWlLk6GJQsqaUBKTNV-1" vertex="1">
          <mxGeometry x="-540" y="125" width="120" height="30" as="geometry" />
        </mxCell>
        <mxCell id="l8SobAz54TLkcfAKa1hX-24" value="&lt;font style=&quot;font-size: 8px;&quot;&gt;Паггинация&lt;/font&gt;" style="text;html=1;align=center;verticalAlign=middle;resizable=0;points=[];autosize=1;strokeColor=none;fillColor=none;" parent="WIyWlLk6GJQsqaUBKTNV-1" vertex="1">
          <mxGeometry x="-475" y="240" width="70" height="30" as="geometry" />
        </mxCell>
        <mxCell id="l8SobAz54TLkcfAKa1hX-26" value="Экран &quot;Заказ&quot;" style="text;html=1;align=center;verticalAlign=middle;whiteSpace=wrap;rounded=0;" parent="WIyWlLk6GJQsqaUBKTNV-1" vertex="1">
          <mxGeometry x="-172.5" y="125" width="95" height="30" as="geometry" />
        </mxCell>
        <mxCell id="l8SobAz54TLkcfAKa1hX-27" value="/orders/{orderid}" style="text;html=1;align=center;verticalAlign=middle;resizable=0;points=[];autosize=1;strokeColor=none;fillColor=none;" parent="WIyWlLk6GJQsqaUBKTNV-1" vertex="1">
          <mxGeometry x="-172.5" y="145" width="110" height="30" as="geometry" />
        </mxCell>
        <mxCell id="l8SobAz54TLkcfAKa1hX-28" value="" style="rounded=0;whiteSpace=wrap;html=1;" parent="WIyWlLk6GJQsqaUBKTNV-1" vertex="1">
          <mxGeometry x="-172.5" y="175" width="240" height="230" as="geometry" />
        </mxCell>
        <mxCell id="l8SobAz54TLkcfAKa1hX-37" value="&lt;font style=&quot;font-size: 10px;&quot;&gt;Заказ&lt;/font&gt;" style="rounded=0;whiteSpace=wrap;html=1;" parent="WIyWlLk6GJQsqaUBKTNV-1" vertex="1">
          <mxGeometry x="-107.5" y="185" width="110" height="20" as="geometry" />
        </mxCell>
        <mxCell id="l8SobAz54TLkcfAKa1hX-38" value="&lt;span style=&quot;font-size: 10px;&quot;&gt;Информация о заказе:&lt;/span&gt;&lt;div&gt;&lt;span style=&quot;font-size: 10px;&quot;&gt;1. Дата заказа&lt;/span&gt;&lt;/div&gt;&lt;div&gt;&lt;span style=&quot;font-size: 10px;&quot;&gt;2. Растение&lt;/span&gt;&lt;/div&gt;&lt;div&gt;&lt;span style=&quot;font-size: 10px;&quot;&gt;3. Стоимость&lt;/span&gt;&lt;/div&gt;" style="rounded=0;whiteSpace=wrap;html=1;" parent="WIyWlLk6GJQsqaUBKTNV-1" vertex="1">
          <mxGeometry x="-142.5" y="235" width="180" height="100" as="geometry" />
        </mxCell>
        <mxCell id="l8SobAz54TLkcfAKa1hX-39" value="" style="edgeStyle=elbowEdgeStyle;elbow=horizontal;endArrow=classic;html=1;curved=0;rounded=0;endSize=8;startSize=8;entryX=-0.016;entryY=0.382;entryDx=0;entryDy=0;entryPerimeter=0;" parent="WIyWlLk6GJQsqaUBKTNV-1" target="l8SobAz54TLkcfAKa1hX-46" edge="1">
          <mxGeometry width="50" height="50" relative="1" as="geometry">
            <mxPoint x="67.5" y="355" as="sourcePoint" />
            <mxPoint x="107.5" y="415" as="targetPoint" />
          </mxGeometry>
        </mxCell>
        <mxCell id="l8SobAz54TLkcfAKa1hX-42" value="&lt;span style=&quot;font-size: 10px;&quot;&gt;Оставить отзыв&lt;/span&gt;" style="rounded=0;whiteSpace=wrap;html=1;" parent="WIyWlLk6GJQsqaUBKTNV-1" vertex="1">
          <mxGeometry x="-107.5" y="346" width="110" height="20" as="geometry" />
        </mxCell>
        <mxCell id="l8SobAz54TLkcfAKa1hX-43" value="" style="edgeStyle=elbowEdgeStyle;elbow=horizontal;endArrow=classic;html=1;curved=0;rounded=0;endSize=8;startSize=8;exitX=0.942;exitY=1.007;exitDx=0;exitDy=0;exitPerimeter=0;" parent="WIyWlLk6GJQsqaUBKTNV-1" source="l8SobAz54TLkcfAKa1hX-5" target="l8SobAz54TLkcfAKa1hX-44" edge="1">
          <mxGeometry width="50" height="50" relative="1" as="geometry">
            <mxPoint x="-320" y="310" as="sourcePoint" />
            <mxPoint x="-340" y="390" as="targetPoint" />
            <Array as="points">
              <mxPoint x="-334" y="350" />
            </Array>
          </mxGeometry>
        </mxCell>
        <mxCell id="l8SobAz54TLkcfAKa1hX-44" value="ENDPOINT:&lt;div&gt;GET /api/v1/orders&lt;/div&gt;" style="text;html=1;align=center;verticalAlign=middle;whiteSpace=wrap;rounded=0;" parent="WIyWlLk6GJQsqaUBKTNV-1" vertex="1">
          <mxGeometry x="-385" y="410" width="120" height="50" as="geometry" />
        </mxCell>
        <mxCell id="l8SobAz54TLkcfAKa1hX-46" value="ENDPOINT:&lt;div&gt;GET /api/v1/orders/{orderId}&lt;/div&gt;" style="text;html=1;align=center;verticalAlign=middle;whiteSpace=wrap;rounded=0;" parent="WIyWlLk6GJQsqaUBKTNV-1" vertex="1">
          <mxGeometry x="107.5" y="420" width="182.5" height="50" as="geometry" />
        </mxCell>
        <mxCell id="l8SobAz54TLkcfAKa1hX-47" value="" style="edgeStyle=elbowEdgeStyle;elbow=horizontal;endArrow=classic;html=1;curved=0;rounded=0;endSize=8;startSize=8;" parent="WIyWlLk6GJQsqaUBKTNV-1" edge="1">
          <mxGeometry width="50" height="50" relative="1" as="geometry">
            <mxPoint x="69.5" y="275" as="sourcePoint" />
            <mxPoint x="222.5" y="275" as="targetPoint" />
          </mxGeometry>
        </mxCell>
        <mxCell id="l8SobAz54TLkcfAKa1hX-48" value="" style="rounded=0;whiteSpace=wrap;html=1;" parent="WIyWlLk6GJQsqaUBKTNV-1" vertex="1">
          <mxGeometry x="222.5" y="175" width="230" height="230" as="geometry" />
        </mxCell>
        <mxCell id="l8SobAz54TLkcfAKa1hX-49" value="&lt;font style=&quot;font-size: 10px;&quot;&gt;Отзыв на Заказ&lt;/font&gt;" style="rounded=0;whiteSpace=wrap;html=1;" parent="WIyWlLk6GJQsqaUBKTNV-1" vertex="1">
          <mxGeometry x="282.5" y="185" width="110" height="20" as="geometry" />
        </mxCell>
        <mxCell id="l8SobAz54TLkcfAKa1hX-50" value="1" style="rounded=0;whiteSpace=wrap;html=1;" parent="WIyWlLk6GJQsqaUBKTNV-1" vertex="1">
          <mxGeometry x="262.5" y="242.5" width="30" height="27.5" as="geometry" />
        </mxCell>
        <mxCell id="l8SobAz54TLkcfAKa1hX-53" value="2" style="rounded=0;whiteSpace=wrap;html=1;" parent="WIyWlLk6GJQsqaUBKTNV-1" vertex="1">
          <mxGeometry x="292.5" y="242.5" width="30" height="27.5" as="geometry" />
        </mxCell>
        <mxCell id="l8SobAz54TLkcfAKa1hX-54" value="3" style="rounded=0;whiteSpace=wrap;html=1;" parent="WIyWlLk6GJQsqaUBKTNV-1" vertex="1">
          <mxGeometry x="322.5" y="242.5" width="30" height="27.5" as="geometry" />
        </mxCell>
        <mxCell id="l8SobAz54TLkcfAKa1hX-55" value="4" style="rounded=0;whiteSpace=wrap;html=1;" parent="WIyWlLk6GJQsqaUBKTNV-1" vertex="1">
          <mxGeometry x="352.5" y="242.5" width="30" height="27.5" as="geometry" />
        </mxCell>
        <mxCell id="l8SobAz54TLkcfAKa1hX-56" value="5" style="rounded=0;whiteSpace=wrap;html=1;" parent="WIyWlLk6GJQsqaUBKTNV-1" vertex="1">
          <mxGeometry x="382.5" y="242.5" width="30" height="27.5" as="geometry" />
        </mxCell>
        <mxCell id="l8SobAz54TLkcfAKa1hX-57" value="&lt;font style=&quot;font-size: 11px;&quot;&gt;Оценка&lt;/font&gt;" style="text;html=1;align=center;verticalAlign=middle;whiteSpace=wrap;rounded=0;" parent="WIyWlLk6GJQsqaUBKTNV-1" vertex="1">
          <mxGeometry x="307.5" y="220" width="60" height="30" as="geometry" />
        </mxCell>
        <mxCell id="l8SobAz54TLkcfAKa1hX-58" value="&lt;span style=&quot;color: rgba(0, 0, 0, 0); font-family: monospace; font-size: 0px; text-align: start; text-wrap-mode: nowrap;&quot;&gt;%3CmxGraphModel%3E%3Croot%3E%3CmxCell%20id%3D%220%22%2F%3E%3CmxCell%20id%3D%221%22%20parent%3D%220%22%2F%3E%3CmxCell%20id%3D%222%22%20value%3D%22%22%20style%3D%22rounded%3D0%3BwhiteSpace%3Dwrap%3Bhtml%3D1%3B%22%20vertex%3D%221%22%20parent%3D%221%22%3E%3CmxGeometry%20x%3D%22420%22%20y%3D%22232.5%22%20width%3D%2230%22%20height%3D%2227.5%22%20as%3D%22geometry%22%2F%3E%3C%2FmxCell%3E%3C%2Froot%3E%3C%2FmxGraphModel%3E&lt;/span&gt;&lt;span style=&quot;font-size: 9px;&quot;&gt;✎&amp;nbsp;&lt;/span&gt;Комментарий" style="rounded=0;whiteSpace=wrap;html=1;" parent="WIyWlLk6GJQsqaUBKTNV-1" vertex="1">
          <mxGeometry x="277.5" y="306" width="120" height="60" as="geometry" />
        </mxCell>
        <mxCell id="l8SobAz54TLkcfAKa1hX-59" value="" style="whiteSpace=wrap;html=1;aspect=fixed;" parent="WIyWlLk6GJQsqaUBKTNV-1" vertex="1">
          <mxGeometry x="232.5" y="185" width="20" height="20" as="geometry" />
        </mxCell>
        <mxCell id="l8SobAz54TLkcfAKa1hX-60" value="" style="endArrow=classic;html=1;rounded=0;entryX=0;entryY=0.5;entryDx=0;entryDy=0;" parent="WIyWlLk6GJQsqaUBKTNV-1" target="l8SobAz54TLkcfAKa1hX-59" edge="1">
          <mxGeometry relative="1" as="geometry">
            <mxPoint x="252.5" y="194.82999999999998" as="sourcePoint" />
            <mxPoint x="232.5" y="194.82999999999998" as="targetPoint" />
            <Array as="points">
              <mxPoint x="252.5" y="194.82999999999998" />
            </Array>
          </mxGeometry>
        </mxCell>
        <mxCell id="l8SobAz54TLkcfAKa1hX-64" value="" style="whiteSpace=wrap;html=1;aspect=fixed;" parent="WIyWlLk6GJQsqaUBKTNV-1" vertex="1">
          <mxGeometry x="-162.5" y="185" width="20" height="20" as="geometry" />
        </mxCell>
        <mxCell id="l8SobAz54TLkcfAKa1hX-65" value="" style="endArrow=classic;html=1;rounded=0;entryX=0;entryY=0.5;entryDx=0;entryDy=0;" parent="WIyWlLk6GJQsqaUBKTNV-1" target="l8SobAz54TLkcfAKa1hX-64" edge="1">
          <mxGeometry relative="1" as="geometry">
            <mxPoint x="-142.5" y="194.82999999999998" as="sourcePoint" />
            <mxPoint x="-162.5" y="194.82999999999998" as="targetPoint" />
            <Array as="points">
              <mxPoint x="-142.5" y="194.82999999999998" />
            </Array>
          </mxGeometry>
        </mxCell>
        <mxCell id="l8SobAz54TLkcfAKa1hX-66" value="Экран &quot;Отзыв на заказ&quot;" style="text;html=1;align=center;verticalAlign=middle;whiteSpace=wrap;rounded=0;" parent="WIyWlLk6GJQsqaUBKTNV-1" vertex="1">
          <mxGeometry x="222.5" y="130" width="140" height="30" as="geometry" />
        </mxCell>
        <mxCell id="l8SobAz54TLkcfAKa1hX-67" value="/orders/{orderid}/reviews" style="text;html=1;align=center;verticalAlign=middle;resizable=0;points=[];autosize=1;strokeColor=none;fillColor=none;" parent="WIyWlLk6GJQsqaUBKTNV-1" vertex="1">
          <mxGeometry x="217.5" y="150" width="150" height="30" as="geometry" />
        </mxCell>
        <mxCell id="l8SobAz54TLkcfAKa1hX-68" value="" style="edgeStyle=elbowEdgeStyle;elbow=horizontal;endArrow=classic;html=1;curved=0;rounded=0;endSize=8;startSize=8;entryX=-0.016;entryY=0.382;entryDx=0;entryDy=0;entryPerimeter=0;" parent="WIyWlLk6GJQsqaUBKTNV-1" edge="1">
          <mxGeometry width="50" height="50" relative="1" as="geometry">
            <mxPoint x="452.5" y="365" as="sourcePoint" />
            <mxPoint x="490.5" y="449" as="targetPoint" />
          </mxGeometry>
        </mxCell>
        <mxCell id="l8SobAz54TLkcfAKa1hX-69" value="ENDPOINT:&lt;div&gt;POST /api/v1/orders/{orderId}/reviews&amp;nbsp;&lt;/div&gt;" style="text;html=1;align=center;verticalAlign=middle;whiteSpace=wrap;rounded=0;" parent="WIyWlLk6GJQsqaUBKTNV-1" vertex="1">
          <mxGeometry x="492.5" y="430" width="227.5" height="50" as="geometry" />
        </mxCell>
        <mxCell id="l8SobAz54TLkcfAKa1hX-70" value="" style="edgeStyle=elbowEdgeStyle;elbow=horizontal;endArrow=classic;html=1;curved=0;rounded=0;endSize=8;startSize=8;exitX=0.382;exitY=1;exitDx=0;exitDy=0;entryX=0.005;entryY=0.913;entryDx=0;entryDy=0;entryPerimeter=0;exitPerimeter=0;" parent="WIyWlLk6GJQsqaUBKTNV-1" source="RK4T76Md9DpvqgegxEv0-52" target="l8SobAz54TLkcfAKa1hX-76" edge="1">
          <mxGeometry width="50" height="50" relative="1" as="geometry">
            <mxPoint x="527" y="-184" as="sourcePoint" />
            <mxPoint x="170" y="105" as="targetPoint" />
            <Array as="points">
              <mxPoint x="70" y="-10" />
            </Array>
          </mxGeometry>
        </mxCell>
        <mxCell id="l8SobAz54TLkcfAKa1hX-71" value="Экран &quot;Служба поддержки&quot;" style="text;html=1;align=center;verticalAlign=middle;whiteSpace=wrap;rounded=0;" parent="WIyWlLk6GJQsqaUBKTNV-1" vertex="1">
          <mxGeometry x="750" y="-140" width="160" height="30" as="geometry" />
        </mxCell>
        <mxCell id="l8SobAz54TLkcfAKa1hX-72" value="/support" style="text;html=1;align=center;verticalAlign=middle;resizable=0;points=[];autosize=1;strokeColor=none;fillColor=none;" parent="WIyWlLk6GJQsqaUBKTNV-1" vertex="1">
          <mxGeometry x="745" y="-120" width="70" height="30" as="geometry" />
        </mxCell>
        <mxCell id="l8SobAz54TLkcfAKa1hX-73" value="" style="rounded=0;whiteSpace=wrap;html=1;" parent="WIyWlLk6GJQsqaUBKTNV-1" vertex="1">
          <mxGeometry x="750" y="-90" width="240" height="230" as="geometry" />
        </mxCell>
        <mxCell id="l8SobAz54TLkcfAKa1hX-74" value="&lt;h1 style=&quot;color: rgb(44, 45, 46); font-weight: 400; margin: 8px 0px 0.67em; font-size: 24px; line-height: 32px; font-family: Helvetica, Arial, sans-serif; text-align: start; background-color: rgb(255, 255, 255);&quot; class=&quot;z7Rgh&quot;&gt;≡&lt;/h1&gt;" style="text;html=1;align=center;verticalAlign=middle;whiteSpace=wrap;rounded=0;" parent="WIyWlLk6GJQsqaUBKTNV-1" vertex="1">
          <mxGeometry x="760" y="-75" width="20" height="20" as="geometry" />
        </mxCell>
        <mxCell id="l8SobAz54TLkcfAKa1hX-75" value="&lt;div style=&quot;line-height: 0%;&quot;&gt;&lt;br&gt;&lt;/div&gt;" style="whiteSpace=wrap;html=1;aspect=fixed;fillColor=none;" parent="WIyWlLk6GJQsqaUBKTNV-1" vertex="1">
          <mxGeometry x="760" y="-80" width="20" height="20" as="geometry" />
        </mxCell>
        <mxCell id="l8SobAz54TLkcfAKa1hX-76" value="" style="rounded=0;whiteSpace=wrap;html=1;" parent="WIyWlLk6GJQsqaUBKTNV-1" vertex="1">
          <mxGeometry x="640" y="-90" width="110" height="230" as="geometry" />
        </mxCell>
        <mxCell id="l8SobAz54TLkcfAKa1hX-77" value="Меню" style="text;html=1;align=center;verticalAlign=middle;whiteSpace=wrap;rounded=0;" parent="WIyWlLk6GJQsqaUBKTNV-1" vertex="1">
          <mxGeometry x="665" y="-85" width="60" height="30" as="geometry" />
        </mxCell>
        <mxCell id="l8SobAz54TLkcfAKa1hX-78" value="&lt;font style=&quot;font-size: 9px;&quot;&gt;Служба поддержки&lt;/font&gt;" style="rounded=0;whiteSpace=wrap;html=1;fillColor=#d0cee2;strokeColor=#56517e;" parent="WIyWlLk6GJQsqaUBKTNV-1" vertex="1">
          <mxGeometry x="652.5" y="50" width="85" height="20" as="geometry" />
        </mxCell>
        <mxCell id="l8SobAz54TLkcfAKa1hX-79" value="&lt;span style=&quot;font-size: 9px;&quot;&gt;История заказов&lt;/span&gt;" style="rounded=0;whiteSpace=wrap;html=1;" parent="WIyWlLk6GJQsqaUBKTNV-1" vertex="1">
          <mxGeometry x="652.5" y="20" width="85" height="20" as="geometry" />
        </mxCell>
        <mxCell id="l8SobAz54TLkcfAKa1hX-80" value="&lt;span style=&quot;font-size: 9px;&quot;&gt;Мои растения&lt;/span&gt;" style="rounded=0;whiteSpace=wrap;html=1;" parent="WIyWlLk6GJQsqaUBKTNV-1" vertex="1">
          <mxGeometry x="652.5" y="-10" width="85" height="20" as="geometry" />
        </mxCell>
        <mxCell id="l8SobAz54TLkcfAKa1hX-81" value="&lt;span style=&quot;color: rgb(51, 51, 51); font-size: 9px;&quot;&gt;Личный кабинет&lt;/span&gt;" style="rounded=0;whiteSpace=wrap;html=1;" parent="WIyWlLk6GJQsqaUBKTNV-1" vertex="1">
          <mxGeometry x="652.5" y="-40" width="85" height="20" as="geometry" />
        </mxCell>
        <mxCell id="l8SobAz54TLkcfAKa1hX-82" value="&lt;font style=&quot;font-size: 10px;&quot;&gt;Служба поддержки&lt;/font&gt;" style="rounded=0;whiteSpace=wrap;html=1;" parent="WIyWlLk6GJQsqaUBKTNV-1" vertex="1">
          <mxGeometry x="815" y="-85" width="110" height="20" as="geometry" />
        </mxCell>
        <mxCell id="l8SobAz54TLkcfAKa1hX-83" value="✎ Опишите вашу проблему" style="rounded=0;whiteSpace=wrap;html=1;" parent="WIyWlLk6GJQsqaUBKTNV-1" vertex="1">
          <mxGeometry x="770" y="-30" width="200" height="65" as="geometry" />
        </mxCell>
        <mxCell id="l8SobAz54TLkcfAKa1hX-88" value="" style="edgeStyle=elbowEdgeStyle;elbow=horizontal;endArrow=classic;html=1;curved=0;rounded=0;endSize=8;startSize=8;" parent="WIyWlLk6GJQsqaUBKTNV-1" target="l8SobAz54TLkcfAKa1hX-91" edge="1">
          <mxGeometry width="50" height="50" relative="1" as="geometry">
            <mxPoint x="990" y="90" as="sourcePoint" />
            <mxPoint x="1025" y="160" as="targetPoint" />
          </mxGeometry>
        </mxCell>
        <mxCell id="l8SobAz54TLkcfAKa1hX-89" value="Отправить" style="rounded=0;whiteSpace=wrap;html=1;" parent="WIyWlLk6GJQsqaUBKTNV-1" vertex="1">
          <mxGeometry x="890" y="95" width="90" height="25" as="geometry" />
        </mxCell>
        <mxCell id="l8SobAz54TLkcfAKa1hX-90" value="ENDPOINT:&lt;div&gt;POST /api/v1/orders/{orderId}/reviews&amp;nbsp;&lt;/div&gt;" style="text;html=1;align=center;verticalAlign=middle;whiteSpace=wrap;rounded=0;" parent="WIyWlLk6GJQsqaUBKTNV-1" vertex="1">
          <mxGeometry x="492.5" y="430" width="227.5" height="50" as="geometry" />
        </mxCell>
        <mxCell id="l8SobAz54TLkcfAKa1hX-91" value="ENDPOINT:&lt;div&gt;POST /api/v1/support-tickets&lt;/div&gt;" style="text;html=1;align=center;verticalAlign=middle;whiteSpace=wrap;rounded=0;" parent="WIyWlLk6GJQsqaUBKTNV-1" vertex="1">
          <mxGeometry x="1030" y="135" width="227.5" height="50" as="geometry" />
        </mxCell>
      </root>
    </mxGraphModel>
  </diagram>
</mxfile>

